<?xml version="1.0" encoding="utf-8"?>
<!-- Generator: Adobe Illustrator 23.0.3, SVG Export Plug-In . SVG Version: 6.00 Build 0)  -->
<svg version="1.1" id="Layer_1" xmlns="http://www.w3.org/2000/svg" xmlns:xlink="http://www.w3.org/1999/xlink" x="0px" y="0px"
	 viewBox="0 0 48.5 48.5" style="enable-background:new 0 0 48.5 48.5;" xml:space="preserve">
<style type="text/css">
	.st0{fill:#09A9B6;}
</style>
<g>
	<g>
		<g>
			<path class="st0" d="M11.8,13.5c-3.7,0-6.7-3-6.7-6.7C5.1,3,8.1,0,11.8,0s6.7,3,6.7,6.7C18.5,10.4,15.5,13.5,11.8,13.5z M11.8,2
				C9.2,2,7.1,4.1,7.1,6.7c0,2.6,2.1,4.7,4.7,4.7c2.6,0,4.7-2.1,4.7-4.7C16.5,4.1,14.4,2,11.8,2z"/>
		</g>
		<g>
			<g>
				<path class="st0" d="M11.8,23.5H0v-1c0-7.9,6.2-12.4,6.4-12.6c0.4-0.3,1.1-0.2,1.4,0.2c0.3,0.4,0.2,1.1-0.2,1.4
					c-0.1,0-5,3.7-5.5,10h9.8c0.6,0,1,0.4,1,1S12.4,23.5,11.8,23.5z"/>
			</g>
			<g>
				<path class="st0" d="M23.6,23.5H11.8c-0.6,0-1-0.4-1-1s0.4-1,1-1h9.8c-0.5-6.2-5.5-9.9-5.5-10c-0.4-0.3-0.5-0.9-0.2-1.4
					c0.3-0.4,0.9-0.6,1.4-0.2c0.3,0.2,6.4,4.7,6.4,12.6V23.5z"/>
			</g>
		</g>
	</g>
	<g>
		<g>
			<path class="st0" d="M36.7,38.4c-3.7,0-6.7-3-6.7-6.7c0-3.7,3-6.7,6.7-6.7c3.7,0,6.7,3,6.7,6.7C43.4,35.4,40.4,38.4,36.7,38.4z
				 M36.7,27c-2.6,0-4.7,2.1-4.7,4.7c0,2.6,2.1,4.7,4.7,4.7s4.7-2.1,4.7-4.7C41.4,29.1,39.3,27,36.7,27z"/>
		</g>
		<g>
			<g>
				<path class="st0" d="M36.7,48.5H24.9v-1c0-7.9,6.2-12.4,6.4-12.6c0.4-0.3,1.1-0.2,1.4,0.2c0.3,0.4,0.2,1.1-0.2,1.4
					c-0.1,0-5,3.7-5.5,10h9.8c0.6,0,1,0.4,1,1S37.2,48.5,36.7,48.5z"/>
			</g>
			<g>
				<path class="st0" d="M48.5,48.5H36.7c-0.6,0-1-0.4-1-1s0.4-1,1-1h9.8c-0.5-6.2-5.5-9.9-5.5-10c-0.4-0.3-0.5-0.9-0.2-1.4
					c0.3-0.4,0.9-0.6,1.4-0.2c0.3,0.2,6.4,4.7,6.4,12.6V48.5z"/>
			</g>
		</g>
	</g>
	<g>
		<g>
			<path class="st0" d="M40.4,22.7c-0.6,0-1-0.4-1-1c0-8.3-6.8-15.1-15.1-15.1c-0.6,0-1-0.4-1-1s0.4-1,1-1c9.4,0,17.1,7.7,17.1,17.1
				C41.4,22.2,40.9,22.7,40.4,22.7z"/>
		</g>
		<g>
			<path class="st0" d="M40.5,23.6l-4.9-3.7c-0.4-0.3-0.5-1-0.2-1.4c0.3-0.4,1-0.5,1.4-0.2l3.3,2.6l2.9-3.5c0.4-0.4,1-0.5,1.4-0.1
				c0.4,0.4,0.5,1,0.1,1.4L40.5,23.6z"/>
		</g>
	</g>
	<g>
		<g>
			<path class="st0" d="M22.6,44.9c-9.4,0-17.1-7.7-17.1-17.1c0-0.6,0.4-1,1-1s1,0.4,1,1c0,8.3,6.8,15.1,15.1,15.1c0.6,0,1,0.4,1,1
				S23.2,44.9,22.6,44.9z"/>
		</g>
		<g>
			<path class="st0" d="M2.9,32.4c-0.2,0-0.5-0.1-0.6-0.2c-0.4-0.4-0.5-1-0.1-1.4l4.1-4.9l4.9,3.7c0.4,0.3,0.5,1,0.2,1.4
				c-0.3,0.4-1,0.5-1.4,0.2l-3.3-2.6L3.7,32C3.5,32.3,3.2,32.4,2.9,32.4z"/>
		</g>
	</g>
</g>
</svg>
