<?xml version="1.0" encoding="utf-8"?>
<!-- Generator: Adobe Illustrator 23.0.3, SVG Export Plug-In . SVG Version: 6.00 Build 0)  -->
<svg version="1.1" id="Layer_1" xmlns="http://www.w3.org/2000/svg" xmlns:xlink="http://www.w3.org/1999/xlink" x="0px" y="0px"
	 viewBox="0 0 48 48.2" style="enable-background:new 0 0 48 48.2;" xml:space="preserve">
<style type="text/css">
	.st0{fill:#09A9B6;}
</style>
<g>
	<g>
		<path class="st0" d="M37.4,44c-0.9,0-1.5-0.6-2-1c-0.3-0.3-0.6-0.5-0.9-0.7l-0.3-0.2c-0.4-0.2-0.8-0.4-1.1-0.4
			c-0.3,0-0.7,0.2-1,0.4L30,43.5c-0.2,0.1-0.6,0.3-1,0.4c-0.7,0.1-1.3-0.3-1.6-0.6c-1.9-1.4-4.3-1.9-6.5-1.5l-0.4-2
			c2.8-0.6,5.8,0.1,8.1,1.8c0.1,0.1,0.3,0.2,0.3,0.2c0,0,0.1-0.1,0.2-0.1l2.1-1.2c0.5-0.3,1.1-0.7,1.9-0.7c0.8,0,1.5,0.3,2.1,0.6
			l0.3,0.1c0.6,0.3,1,0.7,1.4,1c0.6,0.5,0.6,0.5,0.8,0.4c0.8-0.4,4.5-1.1,5.4-1.2l0.1,2c-0.7,0-4.1,0.7-4.6,1
			C38,43.9,37.7,44,37.4,44z"/>
	</g>
	<g>
		<g>
			<path class="st0" d="M43.2,41.9l-10.6-3.5L2.7,8.5C1.8,7.6,1.3,6.3,1.3,5c0-1.3,0.5-2.6,1.5-3.5C3.7,0.5,4.9,0,6.3,0
				c1.3,0,2.6,0.5,3.5,1.5l29.9,29.9L43.2,41.9z M33.7,36.7l6.4,2.1l-2.1-6.4L8.4,2.9c-1.1-1.1-3.1-1.1-4.2,0C3.6,3.4,3.3,4.2,3.3,5
				c0,0.8,0.3,1.6,0.9,2.1L33.7,36.7z"/>
		</g>
		<g>
			<path class="st0" d="M9.1,22.4l-6.5-6.5c-1.6-1.6-1.6-4.2,0-5.8L4.7,8l1.4,1.4L4,11.5c-0.8,0.8-0.8,2.1,0,2.9l6.5,6.5L9.1,22.4z"
				/>
		</g>
	</g>
	<g>
		<path class="st0" d="M47,48.2H1c-0.6,0-1-0.4-1-1v-20c0-0.6,0.4-1,1-1h21.8c0.3,0,0.5,0.1,0.7,0.3l10.2,10.2l6.4,2.1l-2.1-6.4
			l-4.5-4.5c-0.3-0.3-0.4-0.7-0.2-1.1c0.2-0.4,0.5-0.6,0.9-0.6H47c0.6,0,1,0.4,1,1v20C48,47.7,47.6,48.2,47,48.2z M2,46.2h44v-18
			h-9.5l3,3c0.1,0.1,0.2,0.2,0.2,0.4l2.8,8.5c0.1,0.4,0,0.8-0.2,1c-0.3,0.3-0.7,0.4-1,0.2l-8.5-2.8c-0.1,0-0.3-0.1-0.4-0.2
			L22.4,28.2H2V46.2z"/>
	</g>
</g>
</svg>
