<?xml version="1.0" encoding="utf-8"?>
<!-- Generator: Adobe Illustrator 23.0.3, SVG Export Plug-In . SVG Version: 6.00 Build 0)  -->
<svg version="1.1" id="Layer_1" xmlns="http://www.w3.org/2000/svg" xmlns:xlink="http://www.w3.org/1999/xlink" x="0px" y="0px"
	 viewBox="0 0 44.7 48.5" style="enable-background:new 0 0 44.7 48.5;" xml:space="preserve">
<style type="text/css">
	.st0{fill:#09A9B6;}
</style>
<g>
	<g>
		<path class="st0" d="M41.6,48.5H3.1c-1.7,0-3.1-1.4-3.1-3.1V3.1C0,1.4,1.4,0,3.1,0h38.5c1.7,0,3.1,1.4,3.1,3.1v42.3
			C44.7,47.1,43.3,48.5,41.6,48.5z M3.1,2C2.5,2,2,2.5,2,3.1v42.3c0,0.6,0.5,1.1,1.1,1.1h38.5c0.6,0,1.1-0.5,1.1-1.1V3.1
			c0-0.6-0.5-1.1-1.1-1.1H3.1z"/>
	</g>
	<g>
		<g>
			<path class="st0" d="M19,16.2H7.6c-0.6,0-1-0.4-1-1V8.1c0-0.6,0.4-1,1-1H19c0.6,0,1,0.4,1,1v7.1C20,15.8,19.6,16.2,19,16.2z
				 M8.6,14.2H18V9.1H8.6V14.2z"/>
		</g>
		<g>
			<path class="st0" d="M37.2,12.2H23.7c-0.6,0-1-0.4-1-1s0.4-1,1-1h13.4c0.6,0,1,0.4,1,1S37.7,12.2,37.2,12.2z"/>
		</g>
		<g>
			<path class="st0" d="M19,28.8H7.6c-0.6,0-1-0.4-1-1v-7.1c0-0.6,0.4-1,1-1H19c0.6,0,1,0.4,1,1v7.1C20,28.4,19.6,28.8,19,28.8z
				 M8.6,26.8H18v-5.1H8.6V26.8z"/>
		</g>
		<g>
			<path class="st0" d="M37.2,24.8H23.7c-0.6,0-1-0.4-1-1s0.4-1,1-1h13.4c0.6,0,1,0.4,1,1S37.7,24.8,37.2,24.8z"/>
		</g>
		<g>
			<path class="st0" d="M19,41.4H7.6c-0.6,0-1-0.4-1-1v-7.1c0-0.6,0.4-1,1-1H19c0.6,0,1,0.4,1,1v7.1C20,40.9,19.6,41.4,19,41.4z
				 M8.6,39.4H18v-5.1H8.6V39.4z"/>
		</g>
		<g>
			<path class="st0" d="M37.2,37.4H23.7c-0.6,0-1-0.4-1-1s0.4-1,1-1h13.4c0.6,0,1,0.4,1,1S37.7,37.4,37.2,37.4z"/>
		</g>
	</g>
</g>
</svg>
